<svg xmlns="http://www.w3.org/2000/svg" viewBox="0 0 100.71 112.82"><defs><style>.cls-1{fill:#86c3d0;}.cls-2{fill:#fff;}.cls-3{font-size:12px;fill:#1d1d1b;font-family:MyriadPro-Regular, Myriad Pro;}.cls-4{letter-spacing:-0.04em;}.cls-5{letter-spacing:-0.01em;}.cls-6{letter-spacing:-0.01em;}.cls-7{letter-spacing:0em;}.cls-8{letter-spacing:0em;}.cls-9{letter-spacing:-0.02em;}.cls-10{letter-spacing:-0.01em;}.cls-11{letter-spacing:0.01em;}</style></defs><g id="API"><path class="cls-1" d="M50.35,13.37a43,43,0,1,0,43.05,43A43,43,0,0,0,50.35,13.37Z"/><path class="cls-2" d="M50.35,84.53a1,1,0,0,1-.51-.13C22.08,69.21,26.19,45.46,26.24,45.22a1,1,0,0,1,.67-.81l.55-.21A55.73,55.73,0,0,0,49.53,28.65a1.11,1.11,0,0,1,1.64,0A55.87,55.87,0,0,0,73.24,44.2l.56.21a1.07,1.07,0,0,1,.67.81c0,.24,4.16,24-23.6,39.18A1.06,1.06,0,0,1,50.35,84.53ZM28.27,46.2c-.46,3.65-1.64,22.75,22.08,36,23.48-13.12,22.48-32.43,22.08-36A58,58,0,0,1,50.35,31,57.77,57.77,0,0,1,28.27,46.2Z"/><path class="cls-2" d="M50.36,70.51c-6.21,0-10.88-2.33-10.88-5.42V47.73a1.08,1.08,0,0,1,2.16,0c0,1.33,3.4,3.26,8.72,3.26s8.71-1.93,8.71-3.26a1.08,1.08,0,0,1,2.16,0V65.09C61.23,68.18,56.56,70.51,50.36,70.51ZM41.64,51.06v14c0,1.33,3.4,3.26,8.72,3.26s8.71-1.93,8.71-3.26v-14a16.33,16.33,0,0,1-8.71,2.09A16.35,16.35,0,0,1,41.64,51.06Z"/><path class="cls-2" d="M50.36,53.15c-6.21,0-10.88-2.33-10.88-5.42s4.67-5.43,10.88-5.43,10.87,2.34,10.87,5.43S56.56,53.15,50.36,53.15Zm0-8.68c-5.32,0-8.72,1.93-8.72,3.26S45,51,50.36,51s8.71-1.93,8.71-3.26S55.68,44.47,50.36,44.47Z"/><path class="cls-2" d="M50.35,61.83c-6.2,0-10.88-2.33-10.88-5.42a1.09,1.09,0,0,1,2.17,0c0,1.33,3.39,3.26,8.71,3.26s8.72-1.93,8.72-3.26a1.08,1.08,0,0,1,2.16,0C61.23,59.5,56.56,61.83,50.35,61.83Z"/></g><g id="HOSTING"><text class="cls-3" transform="translate(17.93 -4.98)">XML<tspan class="cls-4" x="22.16" y="0"> </tspan><tspan class="cls-5" x="24.22" y="0">T</tspan><tspan x="30.1" y="0">h</tspan><tspan class="cls-6" x="36.76" y="0">r</tspan><tspan class="cls-7" x="40.56" y="0">e</tspan><tspan class="cls-8" x="46.57" y="0">a</tspan><tspan x="52.31" y="0">t </tspan><tspan class="cls-9" x="58.82" y="0">P</tspan><tspan class="cls-6" x="65.02" y="0">r</tspan><tspan x="68.82" y="0">o</tspan><tspan class="cls-10" x="75.41" y="0">t</tspan><tspan class="cls-7" x="79.31" y="0">e</tspan><tspan class="cls-11" x="85.32" y="0">c</tspan><tspan x="90.85" y="0">tion</tspan></text></g></svg>